%
M48
M72
T01C0.03200
T02C0.03543
T03C0.03937
T04C0.04700
T05C0.12000
%
T01
X56500Y208000
X49000Y213000
X56500Y218000
T02
X61500Y188000
X61500Y148000
X116500Y233000
X156500Y233000
T03
X179807Y197961
X179807Y187961
X179807Y177961
X179807Y167961
X179807Y157961
X179807Y147961
X179807Y137961
X179807Y127961
X179807Y117961
X179807Y107961
X179807Y97961
X179807Y87961
X179807Y77961
X179807Y67961
X179807Y57961
X79787Y57961
X79787Y67961
X79787Y77961
X79787Y87961
X79787Y97961
X79787Y107961
X79787Y117961
X79787Y127961
X79787Y137961
X79787Y147961
X79787Y157961
X79787Y167961
X79787Y177961
X79787Y187961
X79787Y197961
T04
X21500Y58157
X21500Y77843
X21421Y108315
X21421Y128000
X21421Y147685
X21500Y198157
X21500Y217843
X66815Y268079
X86500Y268079
X106185Y268079
X136815Y268079
X156500Y268079
X176185Y268079
T05
X16500Y293000
X196500Y18000
M30
