G75*
%MOIN*%
%OFA0B0*%
%FSLAX25Y25*%
%IPPOS*%
%LPD*%
%AMOC8*
5,1,8,0,0,1.08239X$1,22.5*
%
%ADD10C,0.00000*%
%ADD11C,0.12000*%
%ADD12C,0.07050*%
%ADD13C,0.07400*%
%ADD14OC8,0.04800*%
%ADD15C,0.07600*%
D10*
X0001500Y0003000D02*
X0001500Y0307961D01*
X0210201Y0307961D01*
X0210201Y0003000D01*
X0001500Y0003000D01*
X0190500Y0018000D02*
X0190502Y0018154D01*
X0190508Y0018309D01*
X0190518Y0018463D01*
X0190532Y0018617D01*
X0190550Y0018770D01*
X0190571Y0018923D01*
X0190597Y0019076D01*
X0190627Y0019227D01*
X0190660Y0019378D01*
X0190698Y0019528D01*
X0190739Y0019677D01*
X0190784Y0019825D01*
X0190833Y0019971D01*
X0190886Y0020117D01*
X0190942Y0020260D01*
X0191002Y0020403D01*
X0191066Y0020543D01*
X0191133Y0020683D01*
X0191204Y0020820D01*
X0191278Y0020955D01*
X0191356Y0021089D01*
X0191437Y0021220D01*
X0191522Y0021349D01*
X0191610Y0021477D01*
X0191701Y0021601D01*
X0191795Y0021724D01*
X0191893Y0021844D01*
X0191993Y0021961D01*
X0192097Y0022076D01*
X0192203Y0022188D01*
X0192312Y0022297D01*
X0192424Y0022403D01*
X0192539Y0022507D01*
X0192656Y0022607D01*
X0192776Y0022705D01*
X0192899Y0022799D01*
X0193023Y0022890D01*
X0193151Y0022978D01*
X0193280Y0023063D01*
X0193411Y0023144D01*
X0193545Y0023222D01*
X0193680Y0023296D01*
X0193817Y0023367D01*
X0193957Y0023434D01*
X0194097Y0023498D01*
X0194240Y0023558D01*
X0194383Y0023614D01*
X0194529Y0023667D01*
X0194675Y0023716D01*
X0194823Y0023761D01*
X0194972Y0023802D01*
X0195122Y0023840D01*
X0195273Y0023873D01*
X0195424Y0023903D01*
X0195577Y0023929D01*
X0195730Y0023950D01*
X0195883Y0023968D01*
X0196037Y0023982D01*
X0196191Y0023992D01*
X0196346Y0023998D01*
X0196500Y0024000D01*
X0196654Y0023998D01*
X0196809Y0023992D01*
X0196963Y0023982D01*
X0197117Y0023968D01*
X0197270Y0023950D01*
X0197423Y0023929D01*
X0197576Y0023903D01*
X0197727Y0023873D01*
X0197878Y0023840D01*
X0198028Y0023802D01*
X0198177Y0023761D01*
X0198325Y0023716D01*
X0198471Y0023667D01*
X0198617Y0023614D01*
X0198760Y0023558D01*
X0198903Y0023498D01*
X0199043Y0023434D01*
X0199183Y0023367D01*
X0199320Y0023296D01*
X0199455Y0023222D01*
X0199589Y0023144D01*
X0199720Y0023063D01*
X0199849Y0022978D01*
X0199977Y0022890D01*
X0200101Y0022799D01*
X0200224Y0022705D01*
X0200344Y0022607D01*
X0200461Y0022507D01*
X0200576Y0022403D01*
X0200688Y0022297D01*
X0200797Y0022188D01*
X0200903Y0022076D01*
X0201007Y0021961D01*
X0201107Y0021844D01*
X0201205Y0021724D01*
X0201299Y0021601D01*
X0201390Y0021477D01*
X0201478Y0021349D01*
X0201563Y0021220D01*
X0201644Y0021089D01*
X0201722Y0020955D01*
X0201796Y0020820D01*
X0201867Y0020683D01*
X0201934Y0020543D01*
X0201998Y0020403D01*
X0202058Y0020260D01*
X0202114Y0020117D01*
X0202167Y0019971D01*
X0202216Y0019825D01*
X0202261Y0019677D01*
X0202302Y0019528D01*
X0202340Y0019378D01*
X0202373Y0019227D01*
X0202403Y0019076D01*
X0202429Y0018923D01*
X0202450Y0018770D01*
X0202468Y0018617D01*
X0202482Y0018463D01*
X0202492Y0018309D01*
X0202498Y0018154D01*
X0202500Y0018000D01*
X0202498Y0017846D01*
X0202492Y0017691D01*
X0202482Y0017537D01*
X0202468Y0017383D01*
X0202450Y0017230D01*
X0202429Y0017077D01*
X0202403Y0016924D01*
X0202373Y0016773D01*
X0202340Y0016622D01*
X0202302Y0016472D01*
X0202261Y0016323D01*
X0202216Y0016175D01*
X0202167Y0016029D01*
X0202114Y0015883D01*
X0202058Y0015740D01*
X0201998Y0015597D01*
X0201934Y0015457D01*
X0201867Y0015317D01*
X0201796Y0015180D01*
X0201722Y0015045D01*
X0201644Y0014911D01*
X0201563Y0014780D01*
X0201478Y0014651D01*
X0201390Y0014523D01*
X0201299Y0014399D01*
X0201205Y0014276D01*
X0201107Y0014156D01*
X0201007Y0014039D01*
X0200903Y0013924D01*
X0200797Y0013812D01*
X0200688Y0013703D01*
X0200576Y0013597D01*
X0200461Y0013493D01*
X0200344Y0013393D01*
X0200224Y0013295D01*
X0200101Y0013201D01*
X0199977Y0013110D01*
X0199849Y0013022D01*
X0199720Y0012937D01*
X0199589Y0012856D01*
X0199455Y0012778D01*
X0199320Y0012704D01*
X0199183Y0012633D01*
X0199043Y0012566D01*
X0198903Y0012502D01*
X0198760Y0012442D01*
X0198617Y0012386D01*
X0198471Y0012333D01*
X0198325Y0012284D01*
X0198177Y0012239D01*
X0198028Y0012198D01*
X0197878Y0012160D01*
X0197727Y0012127D01*
X0197576Y0012097D01*
X0197423Y0012071D01*
X0197270Y0012050D01*
X0197117Y0012032D01*
X0196963Y0012018D01*
X0196809Y0012008D01*
X0196654Y0012002D01*
X0196500Y0012000D01*
X0196346Y0012002D01*
X0196191Y0012008D01*
X0196037Y0012018D01*
X0195883Y0012032D01*
X0195730Y0012050D01*
X0195577Y0012071D01*
X0195424Y0012097D01*
X0195273Y0012127D01*
X0195122Y0012160D01*
X0194972Y0012198D01*
X0194823Y0012239D01*
X0194675Y0012284D01*
X0194529Y0012333D01*
X0194383Y0012386D01*
X0194240Y0012442D01*
X0194097Y0012502D01*
X0193957Y0012566D01*
X0193817Y0012633D01*
X0193680Y0012704D01*
X0193545Y0012778D01*
X0193411Y0012856D01*
X0193280Y0012937D01*
X0193151Y0013022D01*
X0193023Y0013110D01*
X0192899Y0013201D01*
X0192776Y0013295D01*
X0192656Y0013393D01*
X0192539Y0013493D01*
X0192424Y0013597D01*
X0192312Y0013703D01*
X0192203Y0013812D01*
X0192097Y0013924D01*
X0191993Y0014039D01*
X0191893Y0014156D01*
X0191795Y0014276D01*
X0191701Y0014399D01*
X0191610Y0014523D01*
X0191522Y0014651D01*
X0191437Y0014780D01*
X0191356Y0014911D01*
X0191278Y0015045D01*
X0191204Y0015180D01*
X0191133Y0015317D01*
X0191066Y0015457D01*
X0191002Y0015597D01*
X0190942Y0015740D01*
X0190886Y0015883D01*
X0190833Y0016029D01*
X0190784Y0016175D01*
X0190739Y0016323D01*
X0190698Y0016472D01*
X0190660Y0016622D01*
X0190627Y0016773D01*
X0190597Y0016924D01*
X0190571Y0017077D01*
X0190550Y0017230D01*
X0190532Y0017383D01*
X0190518Y0017537D01*
X0190508Y0017691D01*
X0190502Y0017846D01*
X0190500Y0018000D01*
X0010500Y0293000D02*
X0010502Y0293154D01*
X0010508Y0293309D01*
X0010518Y0293463D01*
X0010532Y0293617D01*
X0010550Y0293770D01*
X0010571Y0293923D01*
X0010597Y0294076D01*
X0010627Y0294227D01*
X0010660Y0294378D01*
X0010698Y0294528D01*
X0010739Y0294677D01*
X0010784Y0294825D01*
X0010833Y0294971D01*
X0010886Y0295117D01*
X0010942Y0295260D01*
X0011002Y0295403D01*
X0011066Y0295543D01*
X0011133Y0295683D01*
X0011204Y0295820D01*
X0011278Y0295955D01*
X0011356Y0296089D01*
X0011437Y0296220D01*
X0011522Y0296349D01*
X0011610Y0296477D01*
X0011701Y0296601D01*
X0011795Y0296724D01*
X0011893Y0296844D01*
X0011993Y0296961D01*
X0012097Y0297076D01*
X0012203Y0297188D01*
X0012312Y0297297D01*
X0012424Y0297403D01*
X0012539Y0297507D01*
X0012656Y0297607D01*
X0012776Y0297705D01*
X0012899Y0297799D01*
X0013023Y0297890D01*
X0013151Y0297978D01*
X0013280Y0298063D01*
X0013411Y0298144D01*
X0013545Y0298222D01*
X0013680Y0298296D01*
X0013817Y0298367D01*
X0013957Y0298434D01*
X0014097Y0298498D01*
X0014240Y0298558D01*
X0014383Y0298614D01*
X0014529Y0298667D01*
X0014675Y0298716D01*
X0014823Y0298761D01*
X0014972Y0298802D01*
X0015122Y0298840D01*
X0015273Y0298873D01*
X0015424Y0298903D01*
X0015577Y0298929D01*
X0015730Y0298950D01*
X0015883Y0298968D01*
X0016037Y0298982D01*
X0016191Y0298992D01*
X0016346Y0298998D01*
X0016500Y0299000D01*
X0016654Y0298998D01*
X0016809Y0298992D01*
X0016963Y0298982D01*
X0017117Y0298968D01*
X0017270Y0298950D01*
X0017423Y0298929D01*
X0017576Y0298903D01*
X0017727Y0298873D01*
X0017878Y0298840D01*
X0018028Y0298802D01*
X0018177Y0298761D01*
X0018325Y0298716D01*
X0018471Y0298667D01*
X0018617Y0298614D01*
X0018760Y0298558D01*
X0018903Y0298498D01*
X0019043Y0298434D01*
X0019183Y0298367D01*
X0019320Y0298296D01*
X0019455Y0298222D01*
X0019589Y0298144D01*
X0019720Y0298063D01*
X0019849Y0297978D01*
X0019977Y0297890D01*
X0020101Y0297799D01*
X0020224Y0297705D01*
X0020344Y0297607D01*
X0020461Y0297507D01*
X0020576Y0297403D01*
X0020688Y0297297D01*
X0020797Y0297188D01*
X0020903Y0297076D01*
X0021007Y0296961D01*
X0021107Y0296844D01*
X0021205Y0296724D01*
X0021299Y0296601D01*
X0021390Y0296477D01*
X0021478Y0296349D01*
X0021563Y0296220D01*
X0021644Y0296089D01*
X0021722Y0295955D01*
X0021796Y0295820D01*
X0021867Y0295683D01*
X0021934Y0295543D01*
X0021998Y0295403D01*
X0022058Y0295260D01*
X0022114Y0295117D01*
X0022167Y0294971D01*
X0022216Y0294825D01*
X0022261Y0294677D01*
X0022302Y0294528D01*
X0022340Y0294378D01*
X0022373Y0294227D01*
X0022403Y0294076D01*
X0022429Y0293923D01*
X0022450Y0293770D01*
X0022468Y0293617D01*
X0022482Y0293463D01*
X0022492Y0293309D01*
X0022498Y0293154D01*
X0022500Y0293000D01*
X0022498Y0292846D01*
X0022492Y0292691D01*
X0022482Y0292537D01*
X0022468Y0292383D01*
X0022450Y0292230D01*
X0022429Y0292077D01*
X0022403Y0291924D01*
X0022373Y0291773D01*
X0022340Y0291622D01*
X0022302Y0291472D01*
X0022261Y0291323D01*
X0022216Y0291175D01*
X0022167Y0291029D01*
X0022114Y0290883D01*
X0022058Y0290740D01*
X0021998Y0290597D01*
X0021934Y0290457D01*
X0021867Y0290317D01*
X0021796Y0290180D01*
X0021722Y0290045D01*
X0021644Y0289911D01*
X0021563Y0289780D01*
X0021478Y0289651D01*
X0021390Y0289523D01*
X0021299Y0289399D01*
X0021205Y0289276D01*
X0021107Y0289156D01*
X0021007Y0289039D01*
X0020903Y0288924D01*
X0020797Y0288812D01*
X0020688Y0288703D01*
X0020576Y0288597D01*
X0020461Y0288493D01*
X0020344Y0288393D01*
X0020224Y0288295D01*
X0020101Y0288201D01*
X0019977Y0288110D01*
X0019849Y0288022D01*
X0019720Y0287937D01*
X0019589Y0287856D01*
X0019455Y0287778D01*
X0019320Y0287704D01*
X0019183Y0287633D01*
X0019043Y0287566D01*
X0018903Y0287502D01*
X0018760Y0287442D01*
X0018617Y0287386D01*
X0018471Y0287333D01*
X0018325Y0287284D01*
X0018177Y0287239D01*
X0018028Y0287198D01*
X0017878Y0287160D01*
X0017727Y0287127D01*
X0017576Y0287097D01*
X0017423Y0287071D01*
X0017270Y0287050D01*
X0017117Y0287032D01*
X0016963Y0287018D01*
X0016809Y0287008D01*
X0016654Y0287002D01*
X0016500Y0287000D01*
X0016346Y0287002D01*
X0016191Y0287008D01*
X0016037Y0287018D01*
X0015883Y0287032D01*
X0015730Y0287050D01*
X0015577Y0287071D01*
X0015424Y0287097D01*
X0015273Y0287127D01*
X0015122Y0287160D01*
X0014972Y0287198D01*
X0014823Y0287239D01*
X0014675Y0287284D01*
X0014529Y0287333D01*
X0014383Y0287386D01*
X0014240Y0287442D01*
X0014097Y0287502D01*
X0013957Y0287566D01*
X0013817Y0287633D01*
X0013680Y0287704D01*
X0013545Y0287778D01*
X0013411Y0287856D01*
X0013280Y0287937D01*
X0013151Y0288022D01*
X0013023Y0288110D01*
X0012899Y0288201D01*
X0012776Y0288295D01*
X0012656Y0288393D01*
X0012539Y0288493D01*
X0012424Y0288597D01*
X0012312Y0288703D01*
X0012203Y0288812D01*
X0012097Y0288924D01*
X0011993Y0289039D01*
X0011893Y0289156D01*
X0011795Y0289276D01*
X0011701Y0289399D01*
X0011610Y0289523D01*
X0011522Y0289651D01*
X0011437Y0289780D01*
X0011356Y0289911D01*
X0011278Y0290045D01*
X0011204Y0290180D01*
X0011133Y0290317D01*
X0011066Y0290457D01*
X0011002Y0290597D01*
X0010942Y0290740D01*
X0010886Y0290883D01*
X0010833Y0291029D01*
X0010784Y0291175D01*
X0010739Y0291323D01*
X0010698Y0291472D01*
X0010660Y0291622D01*
X0010627Y0291773D01*
X0010597Y0291924D01*
X0010571Y0292077D01*
X0010550Y0292230D01*
X0010532Y0292383D01*
X0010518Y0292537D01*
X0010508Y0292691D01*
X0010502Y0292846D01*
X0010500Y0293000D01*
D11*
X0016500Y0293000D03*
X0196500Y0018000D03*
D12*
X0176185Y0264554D02*
X0176185Y0271604D01*
X0156500Y0271604D02*
X0156500Y0264554D01*
X0136815Y0264554D02*
X0136815Y0271604D01*
X0106185Y0271604D02*
X0106185Y0264554D01*
X0086500Y0264554D02*
X0086500Y0271604D01*
X0066815Y0271604D02*
X0066815Y0264554D01*
X0025025Y0217843D02*
X0017975Y0217843D01*
X0017975Y0198157D02*
X0025025Y0198157D01*
X0024946Y0147685D02*
X0017896Y0147685D01*
X0017896Y0128000D02*
X0024946Y0128000D01*
X0024946Y0108315D02*
X0017896Y0108315D01*
X0017975Y0077843D02*
X0025025Y0077843D01*
X0025025Y0058157D02*
X0017975Y0058157D01*
D13*
X0061500Y0148000D03*
X0061500Y0188000D03*
X0116500Y0233000D03*
X0156500Y0233000D03*
D14*
X0056500Y0218000D03*
X0049000Y0213000D03*
X0056500Y0208000D03*
D15*
X0079787Y0197961D03*
X0079787Y0187961D03*
X0079787Y0177961D03*
X0079787Y0167961D03*
X0079787Y0157961D03*
X0079787Y0147961D03*
X0079787Y0137961D03*
X0079787Y0127961D03*
X0079787Y0117961D03*
X0079787Y0107961D03*
X0079787Y0097961D03*
X0079787Y0087961D03*
X0079787Y0077961D03*
X0079787Y0067961D03*
X0079787Y0057961D03*
X0179807Y0057961D03*
X0179807Y0067961D03*
X0179807Y0077961D03*
X0179807Y0087961D03*
X0179807Y0097961D03*
X0179807Y0107961D03*
X0179807Y0117961D03*
X0179807Y0127961D03*
X0179807Y0137961D03*
X0179807Y0147961D03*
X0179807Y0157961D03*
X0179807Y0167961D03*
X0179807Y0177961D03*
X0179807Y0187961D03*
X0179807Y0197961D03*
M02*
